<svg xmlns="http://www.w3.org/2000/svg" width="61.938" height="62.031" viewBox="0 0 61.938 62.031">
  <g id="Group_10545" data-name="Group 10545" transform="translate(62.819 -77.206)">
    <g id="Group_10643" data-name="Group 10643" transform="translate(-62.819 77.206)">
      <path id="Path_14038" data-name="Path 14038" d="M-930.539,4179.556a2.639,2.639,0,0,1-1.48-2.749c.037-10.858.021-21.717.021-32.578v-.794c-.3-.015-.567-.03-.839-.041a2.139,2.139,0,0,1-2.137-1.462,2.112,2.112,0,0,1,.927-2.422q10.139-7.5,20.283-15a2.064,2.064,0,0,1,2.776-.016q3.293,2.414,6.566,4.857a1.092,1.092,0,0,1,.353,1.574,1.055,1.055,0,0,1-1.6.11q-3.142-2.315-6.265-4.654a.583.583,0,0,0-.834-.02q-9.838,7.3-19.692,14.577c-.107.081-.206.167-.436.354h17.623c.874,0,1.341.364,1.339,1.041a.945.945,0,0,1-.835,1.022,4.5,4.5,0,0,1-.783.044q-6.811,0-13.621,0h-.735v34.056h19.6v-.615c0-2.847,0-5.693,0-8.539a6.233,6.233,0,0,1,5.464-6.291,6.2,6.2,0,0,1,6.808,4.874,7.831,7.831,0,0,1,.162,1.681c.016,2.725.007,5.451.007,8.175v.706h3.06v-.687q0-8.478,0-16.955a5.019,5.019,0,0,1,.008-.544,1.024,1.024,0,0,1,1.066-.944,1,1,0,0,1,.992.945,6.642,6.642,0,0,1,.017.664c0,5.652-.024,11.305.019,16.956a2.568,2.568,0,0,1-1.5,2.677Zm30.534-2.1c0-3.2.025-6.344-.009-9.491a4.078,4.078,0,0,0-3.95-3.9,3.962,3.962,0,0,0-4.159,3.511c-.142,3.264-.067,6.534-.083,9.8,0,.017.025.029.069.081Z" transform="translate(935.072 -4117.525)" fill="#2baab7"/>
      <path id="Path_14039" data-name="Path 14039" d="M-753.8,4091.1c-.417,2.009-1.756,3.356-3.224,4.661-3.361,2.991-6.659,6.053-10,9.068a.625.625,0,0,0-.17.86,7.051,7.051,0,0,1-1.362,7.853,18.666,18.666,0,0,1-1.694,1.421,1.026,1.026,0,0,0-.275.489c-.488,1.8-.982,3.609-1.43,5.424a2.054,2.054,0,0,1-.914,1.278,6.651,6.651,0,0,1-4.888.862,17.271,17.271,0,0,1-14.6-13.3,10.166,10.166,0,0,1-.062-5.025,5.742,5.742,0,0,1,.449-1.114,2.239,2.239,0,0,1,1.592-1.25c1.8-.417,3.581-.926,5.366-1.413a.838.838,0,0,0,.458-.312,7.5,7.5,0,0,1,4.638-3.424,6.863,6.863,0,0,1,4.659.426.582.582,0,0,0,.812-.165c3.193-3.533,6.407-7.045,9.6-10.578a7.389,7.389,0,0,1,3.326-2.416,5.98,5.98,0,0,1,7.591,4.4,2.1,2.1,0,0,0,.129.316Zm-25.145,29.593c.347.071.579.134.815.169a6.616,6.616,0,0,0,3.572-.181,1.21,1.21,0,0,0,.639-.682c.488-1.7.907-3.421,1.378-5.125a.7.7,0,0,0-.191-.8q-5.488-5.469-10.971-10.938a.89.89,0,0,0-.717-.181q-2.635.642-5.25,1.362a.93.93,0,0,0-.56.468,7.325,7.325,0,0,0-.053,4.527c.328-.078.6-.138.867-.209.912-.247,1.82-.506,2.734-.748a1.073,1.073,0,0,1,1.45.7c.173.569-.157,1.08-.851,1.3-.153.048-.31.084-.465.127-1.033.287-2.065.577-3.119.871a14.982,14.982,0,0,0,2.772,4.507c.326-.35.608-.665.905-.968.794-.8,1.59-1.6,2.4-2.393a1.039,1.039,0,0,1,1.555-.119,1.051,1.051,0,0,1-.035,1.56c-.148.167-.311.318-.469.473l-2.939,2.884a15.226,15.226,0,0,0,4.523,2.748c.3-1.082.585-2.126.874-3.172.038-.133.074-.272.117-.4a1.061,1.061,0,0,1,1.249-.86,1.074,1.074,0,0,1,.766,1.417C-778.268,4118.229-778.6,4119.424-778.949,4120.689Zm10.359-17.264c3.828-3.483,7.712-6.978,11.545-10.53a3.578,3.578,0,0,0,.984-3.836,3.865,3.865,0,0,0-6.587-1.5c-1.619,1.747-3.208,3.52-4.808,5.283-1.871,2.059-3.74,4.121-5.581,6.151Zm-13.86-2.205c3.9,3.9,7.757,7.758,11.623,11.626a5.208,5.208,0,0,0,.427-8.123q-1.985-2-3.981-3.98A5.194,5.194,0,0,0-782.449,4101.221Z" transform="translate(815.742 -4084.181)" fill="#2baab7"/>
      <path id="Path_14040" data-name="Path 14040" d="M-878.052,4263.142c1.635,0,3.269,0,4.9,0,.849,0,1.21.366,1.211,1.217q0,4.994,0,9.991c0,.8-.361,1.2-1.176,1.2q-5.024.022-10.048,0a1.063,1.063,0,0,1-1.2-1.2q-.021-5.023,0-10.05c0-.8.413-1.155,1.227-1.16C-881.442,4263.137-879.747,4263.142-878.052,4263.142Zm1,2.081v3h3v-3Zm3.019,5.228h-3.01v2.969h3.01Zm-5.185-5.2h-2.983v2.989h2.983Zm0,5.188h-2.988v2.98h2.988Z" transform="translate(892.577 -4234.186)" fill="#2baab7"/>
      <path id="Path_14041" data-name="Path 14041" d="M-878.138,4358.978c1.654,0,3.309-.005,4.964,0,.888,0,1.237.356,1.237,1.249q0,4.964,0,9.93c0,.843-.359,1.229-1.211,1.234q-4.994.018-9.987,0a1.083,1.083,0,0,1-1.229-1.239q-.018-4.961,0-9.928c0-.883.385-1.243,1.264-1.246C-881.447,4358.973-879.793,4358.978-878.138,4358.978Zm4.1,2.1h-3.012v3h3.012Zm-3.009,5.188v2.986h3.01v-2.986Zm-2.194-2.181v-3h-2.962v3Zm.006,5.178v-2.984H-882.2v2.984Z" transform="translate(892.576 -4314.518)" fill="#2baab7"/>
      <path id="Path_14042" data-name="Path 14042" d="M-756.615,4094.111a3.628,3.628,0,0,1,3.59-3.634,3.69,3.69,0,0,1,3.665,3.648,3.643,3.643,0,0,1-3.619,3.615A3.584,3.584,0,0,1-756.615,4094.111Zm5.125.014a1.473,1.473,0,0,0-1.525-1.52,1.535,1.535,0,0,0-1.53,1.481,1.563,1.563,0,0,0,1.519,1.565A1.508,1.508,0,0,0-751.49,4094.125Z" transform="translate(785.487 -4089.458)" fill="#2baab7"/>
      <path id="Path_14043" data-name="Path 14043" d="M-644.519,4307.821a3.643,3.643,0,0,1,3.723,3.5,3.662,3.662,0,0,1-3.548,3.751,3.642,3.642,0,0,1-3.7-3.393A3.61,3.61,0,0,1-644.519,4307.821Zm.056,2.1a1.545,1.545,0,0,0-1.51,1.567,1.538,1.538,0,0,0,1.6,1.476,1.486,1.486,0,0,0,1.46-1.531A1.5,1.5,0,0,0-644.464,4309.919Z" transform="translate(694.486 -4271.637)" fill="#2baab7"/>
      <path id="Path_14044" data-name="Path 14044" d="M-858.5,4121.893c-.179.233-.346.639-.635.77a1.21,1.21,0,0,1-1.045-.06,14.788,14.788,0,0,1-1.8-1.775.9.9,0,0,1,.077-1.264.848.848,0,0,1,1.189-.232,28.547,28.547,0,0,1,2.043,2.024C-858.587,4121.446-858.586,4121.616-858.5,4121.893Z" transform="translate(873.997 -4113.51)" fill="#2baab7"/>
      <path id="Path_14045" data-name="Path 14045" d="M-887.748,4094.643c-.9.008-2.848-1.884-2.766-2.547a1.26,1.26,0,0,1,.545-.9,1.278,1.278,0,0,1,1.1.112,9.106,9.106,0,0,1,1.656,1.655,1.332,1.332,0,0,1,.12,1.1C-887.2,4094.353-887.611,4094.531-887.748,4094.643Z" transform="translate(897.725 -4090)" fill="#2baab7"/>
      <path id="Path_14046" data-name="Path 14046" d="M-887.015,4120.587a5.4,5.4,0,0,1-.506.868c-.459.5-.95.984-1.443,1.457a1.031,1.031,0,0,1-1.548.049,1.059,1.059,0,0,1,.067-1.511,14.215,14.215,0,0,1,1.551-1.51,1.359,1.359,0,0,1,1.1-.191C-887.487,4119.856-887.284,4120.278-887.015,4120.587Z" transform="translate(897.96 -4113.955)" fill="#2baab7"/>
      <path id="Path_14047" data-name="Path 14047" d="M-861.092,4094.135c-.877-.01-1.44-.947-.948-1.561a13.259,13.259,0,0,1,1.924-1.913.9.9,0,0,1,1.257.19.884.884,0,0,1,.119,1.217,25.359,25.359,0,0,1-1.871,1.887A1.186,1.186,0,0,1-861.092,4094.135Z" transform="translate(874.009 -4089.46)" fill="#2baab7"/>
      <path id="Path_14048" data-name="Path 14048" d="M-582.215,4263.151c.362,0,.725-.018,1.086,0a1.034,1.034,0,0,1,.993,1.016,1.03,1.03,0,0,1-.977,1.031c-.743.024-1.489.027-2.232,0a1.038,1.038,0,0,1-.964-1.048,1.057,1.057,0,0,1,.947-1,1,1,0,0,1,.121,0h1.026Z" transform="translate(641.058 -4234.19)" fill="#2baab7"/>
      <path id="Path_14049" data-name="Path 14049" d="M-620.488,4265.181c-.342,0-.684.01-1.025-.005a1.025,1.025,0,0,1-1.051-1.011,1.007,1.007,0,0,1,1.018-1.042q1.055-.026,2.111,0a.984.984,0,0,1,1.01,1.039,1,1,0,0,1-1.038,1.015C-619.8,4265.191-620.146,4265.181-620.488,4265.181Z" transform="translate(673.124 -4234.161)" fill="#2baab7"/>
      <path id="Path_14050" data-name="Path 14050" d="M-597.114,4239.675c0-.344-.019-.686,0-1.027a1.025,1.025,0,0,1,1.049-1.018.966.966,0,0,1,1.022.965,18.734,18.734,0,0,1-.007,2.229.97.97,0,0,1-1.05.937,1.064,1.064,0,0,1-1.017-1,1.135,1.135,0,0,1,0-.12q0-.483,0-.965Z" transform="translate(651.797 -4212.804)" fill="#2baab7"/>
      <path id="Path_14051" data-name="Path 14051" d="M-595.078,4277.99a10.65,10.65,0,0,1-.007,1.143.963.963,0,0,1-1,.92.993.993,0,0,1-1.054-.939,20.91,20.91,0,0,1,0-2.232,1.008,1.008,0,0,1,1.049-.952.969.969,0,0,1,1.006.915A10.594,10.594,0,0,1-595.078,4277.99Z" transform="translate(651.839 -4244.908)" fill="#2baab7"/>
      <path id="Path_14052" data-name="Path 14052" d="M-741.726,4405.811c-.017.38,0,.766-.059,1.143a1.011,1.011,0,0,1-1.038.9,1.033,1.033,0,0,1-1.013-.94,19.454,19.454,0,0,1,0-2.292,1,1,0,0,1,1.024-.917.986.986,0,0,1,1.027.9,10.282,10.282,0,0,1,.009,1.206Z" transform="translate(774.804 -4352.008)" fill="#2baab7"/>
    </g>
  </g>
</svg>
