<svg xmlns="http://www.w3.org/2000/svg" width="72.368" height="72.379" viewBox="0 0 72.368 72.379">
  <g id="Group_10641" data-name="Group 10641" transform="translate(625.021 -3485.808)">
    <path id="Path_14031" data-name="Path 14031" d="M-622.195,3609.839a3.858,3.858,0,0,1-2.73-2.774,4.464,4.464,0,0,1-.092-.978q-.007-12.51,0-25.017a3.579,3.579,0,0,1,3.654-3.819c1.977-.06,3.959-.071,5.934.014a12.167,12.167,0,0,1,2.375.584v-6.607h-.629c-1.7,0-3.392-.012-5.087.007a1.316,1.316,0,0,1-1.3-.673,1.279,1.279,0,0,1,.162-1.39q5.894-9.423,11.777-18.852a1.677,1.677,0,0,1,1.576-.852q9.892.018,19.784.012a2.4,2.4,0,0,1,.824.133,1.1,1.1,0,0,1,.737,1.168,1.106,1.106,0,0,1-.868,1.077,4.284,4.284,0,0,1-.979.09q-8.338.009-16.675,0h-.929c.14.266.224.451.331.623q4.917,7.87,9.83,15.744a.923.923,0,0,0,.9.5q16-.019,32.008-.01h.686c-.183-.315-.3-.53-.429-.737q-2.451-3.917-4.9-7.835a1.269,1.269,0,0,1,.082-1.732,1.233,1.233,0,0,1,1.96.393q2.556,4.064,5.093,8.137c.462.737.939,1.467,1.382,2.215a1.222,1.222,0,0,1-1.123,1.976c-1.105.011-2.211,0-3.372,0V3586.5c1.041-.341,2.079-.675,3.114-1.02,3.064-1.021,5.228.026,6.347,3.075.013.033.069.053.1.079v1.838a5.834,5.834,0,0,1-2.882,3.47q-10.692,6.438-21.325,12.974a11.746,11.746,0,0,1-6.351,1.763q-14.372-.033-28.744,0a1.994,1.994,0,0,0-.877.142c-.6.3-1.155.677-1.729,1.023Zm10.5-27.661v24.006h.881c9.209,0,18.419-.024,27.628.019a9.571,9.571,0,0,0,5.262-1.5c4.458-2.764,8.953-5.468,13.433-8.2q4.1-2.5,8.192-5a2.081,2.081,0,0,0,1.167-2.277,2.1,2.1,0,0,0-2.993-1.51c-6.634,2.208-13.277,4.389-19.892,6.652a17.731,17.731,0,0,1-6.417,1.042c-2.705-.092-5.417-.04-8.125-.011a14.978,14.978,0,0,0-2.446.253,10.784,10.784,0,0,0-3.982,1.891,1.172,1.172,0,0,1-1.685-.271,1.193,1.193,0,0,1,.27-1.689,11.524,11.524,0,0,1,6.316-2.552c2.561-.132,5.13-.1,7.7-.125,1.059-.012,1.418-.284,1.489-1.374a4.084,4.084,0,0,0-.225-1.651,4.646,4.646,0,0,0-4.336-2.953c-2.1-.014-4.192-.005-6.288,0a11.589,11.589,0,0,1-7.419-2.474A11.246,11.246,0,0,0-611.694,3582.178Zm24.118,2.583a7.3,7.3,0,0,1,4.143,3.055,6.136,6.136,0,0,1,.748,5.2,15.1,15.1,0,0,0,1.987-.361c5.1-1.68,10.193-3.4,15.3-5.077a.812.812,0,0,0,.677-.931c-.021-4.874-.012-9.748-.014-14.624,0-.247-.023-.5-.033-.723h-22.8Zm-2.537-13.518c-1.435,0-2.821-.045-4.2.018a1.894,1.894,0,0,1-1.891-1.041c-2.188-3.567-4.422-7.107-6.641-10.655-.139-.222-.295-.434-.481-.708-2.328,3.725-4.6,7.352-6.85,10.992a2.264,2.264,0,0,0-.323,1.111c-.027,2.661-.015,5.322-.013,7.983,0,.208.02.416.029.6.082.048.12.086.162.093a3.436,3.436,0,0,0,.422.023,12.492,12.492,0,0,1,8.044,2.745,8.1,8.1,0,0,0,4.266,1.884c2.128.184,4.274.155,6.412.215.345.009.691,0,1.067,0Zm-32.5,22.267q0,6.182,0,12.364c0,1.048.432,1.538,1.4,1.548q2.825.027,5.651,0a1.242,1.242,0,0,0,1.38-1.352c.023-.47.006-.942.006-1.413q0-11.588,0-23.175c0-1.458-.318-1.77-1.79-1.77h-5.016c-1.254,0-1.633.38-1.634,1.644Q-622.612,3587.433-622.61,3593.509Zm5.813-24.689c1.477,0,2.788.012,4.1-.014a.73.73,0,0,0,.47-.34q3.644-5.8,7.257-11.609a.667.667,0,0,0,.06-.563c-.633-1.063-1.3-2.107-2.018-3.253Z" transform="translate(0 -51.651)" fill="#2baab7"/>
    <path id="Path_14032" data-name="Path 14032" d="M-377.537,3499.039c.019.714-.463,1.187-1.31,1.278a20.265,20.265,0,0,0-2.376.265,8.457,8.457,0,0,0-6.359,6.168,32.565,32.565,0,0,0-.77,4.068c-.017.091-.005.187-.016.281a1.268,1.268,0,0,1-1.246,1.276,1.259,1.259,0,0,1-1.232-1.356,13.945,13.945,0,0,0-1.166-5.264,8.426,8.426,0,0,0-7.885-5.417,5.362,5.362,0,0,1-.633-.045,1.258,1.258,0,0,1-1.173-1.269,1.313,1.313,0,0,1,1.27-1.191,19.019,19.019,0,0,0,3.255-.507,8.194,8.194,0,0,0,5.443-5.672,27.313,27.313,0,0,0,.863-4.4c.132-.885.5-1.426,1.226-1.445.77-.02,1.245.487,1.286,1.444a13.472,13.472,0,0,0,1.683,6.195,8.376,8.376,0,0,0,7.407,4.382,5.954,5.954,0,0,1,.634.025A1.222,1.222,0,0,1-377.537,3499.039Zm-12.07,6.048a11.869,11.869,0,0,1,5.309-6.021,11.885,11.885,0,0,1-5.321-5.966,11.866,11.866,0,0,1-5.289,5.975A11.893,11.893,0,0,1-389.607,3505.086Z" transform="translate(-181.148)" fill="#2baab7"/>
    <path id="Path_14033" data-name="Path 14033" d="M-359.938,3695.254c0,1.108.006,2.213,0,3.319a1.375,1.375,0,0,1-1.126,1.563q-3.367,1.132-6.739,2.245a1.251,1.251,0,0,1-1.775-.744c-.229-.688.145-1.3,1-1.585,1.822-.614,3.639-1.245,5.477-1.807a.833.833,0,0,0,.694-.988c-.036-1.765-.048-3.532.011-5.294a2.011,2.011,0,0,1,.546-1.281,1.2,1.2,0,0,1,1.143-.1,1.755,1.755,0,0,1,.735,1.15C-359.875,3692.9-359.939,3694.079-359.938,3695.254Z" transform="translate(-207.155 -166.022)" fill="#2baab7"/>
  </g>
</svg>
