<svg xmlns="http://www.w3.org/2000/svg" width="57.415" height="69.008" viewBox="0 0 57.415 69.008">
  <g id="Group_10642" data-name="Group 10642" transform="translate(1072.868 -3508.299)">
    <path id="Path_14034" data-name="Path 14034" d="M-1072.188,3577.308a1.323,1.323,0,0,1-.645-1.538c.669-3.929,1.3-7.864,1.984-11.792a10.777,10.777,0,0,1,6.756-8.5c2.344-1.011,4.7-1.986,7.043-3.007a2.3,2.3,0,0,0,.864-.689c.709-.924,1.371-1.884,2.025-2.792a26.188,26.188,0,0,1-2.184-1.6,9.262,9.262,0,0,1-3.159-7.158c-.013-5.636,0-11.271-.017-16.907a4.371,4.371,0,0,0-.3-1.419,35.944,35.944,0,0,1-1.478-4.015,5.524,5.524,0,0,1,3.983-6.136.9.9,0,0,1,1.11.524.968.968,0,0,1-.245,1.272,1.114,1.114,0,0,1-.228.142c-2.682,1.332-3.254,2.887-2.043,5.6.308.691.482,1.617,1.024,1.981.515.346,1.429.107,2.168.107q12.159.006,24.318.013a.8.8,0,0,0,.9-.563c.276-.731.638-1.43.94-2.153a3.6,3.6,0,0,0-2.341-4.977c-3.453-1.029-6.911-2.036-10.368-3.048a7.429,7.429,0,0,0-4.244.009q-2.288.664-4.579,1.317a.967.967,0,0,1-1.339-.62.972.972,0,0,1,.765-1.326c1.651-.492,3.3-.986,4.965-1.437a9.6,9.6,0,0,1,5.308.16q4.989,1.469,9.979,2.938a5.6,5.6,0,0,1,3.674,7.846,14.069,14.069,0,0,0-1.336,6.6c.1,4.466,0,8.937.039,13.405.039,4.1-1.544,7.25-5.208,9.248a1.816,1.816,0,0,0-.185.14c.767,1.063,1.5,2.106,2.269,3.128a1.382,1.382,0,0,0,.558.339c1.6.69,3.213,1.367,4.818,2.055.852.364,1.12.836.854,1.469s-.812.788-1.649.432c-1.5-.64-3-1.3-4.515-1.912a1.108,1.108,0,0,0-.853,0c-2.323,1.354-4.625,2.749-6.931,4.133a2.827,2.827,0,0,0-.261.218,23.234,23.234,0,0,1,8.7,3.625c.076-.059.126-.076.136-.108.557-1.66,1.618-2.265,3.415-1.772a11.087,11.087,0,0,1,7.1,5.656c.673,1.261,1.268,2.563,2.041,3.814q-.131-.814-.262-1.629c-.232-1.437-.435-2.879-.708-4.309a8.849,8.849,0,0,0-2.605-4.835,1.028,1.028,0,0,1-.383-1.246,1.033,1.033,0,0,1,1.766-.275,10.886,10.886,0,0,1,3.259,6.126c.676,3.974,1.325,7.952,2,11.927a1.3,1.3,0,0,1-.645,1.533h-.809c-.313-.479-.656-.942-.936-1.441-.652-1.158-1.274-2.336-1.82-3.34l-2.76,1.729c.126.493.284,1.075.422,1.661a.923.923,0,0,1-.712,1.183c-.615.208-1.062-.15-1.329-.878-.616-1.675-1.269-3.337-1.934-4.993a2.094,2.094,0,0,0-1.573-1.335c-2.149-.57-3.123-2.274-3.563-4.312a1.643,1.643,0,0,0-.7-1.062,20.8,20.8,0,0,0-24.175-.354,2.867,2.867,0,0,0-1.29,1.809,4.938,4.938,0,0,1-4.1,4.108,1.051,1.051,0,0,0-.562.5,20.485,20.485,0,0,0-2.348,5.688c-.186.73-.678,1.031-1.27.852a1.023,1.023,0,0,1-.7-1.374c.139-.556.289-1.109.423-1.62a11.885,11.885,0,0,1-1.5-.711,12.211,12.211,0,0,1-1.266-1.091c-.711,1.368-1.4,2.729-2.126,4.065a5.973,5.973,0,0,1-.753.915Zm14.8-46.155a2.024,2.024,0,0,0-.054.309c0,3.007-.062,6.017.024,9.021a6.922,6.922,0,0,0,4.749,6.758c2.7,1,5.5,1.744,8.257,2.58a1.359,1.359,0,0,0,.717-.061c2.441-.737,4.884-1.469,7.315-2.236a7.35,7.35,0,0,0,5.44-7.307c.009-2.828,0-5.656,0-8.485,0-.181-.03-.361-.053-.626a6.434,6.434,0,0,1-4.3,1.577q-8.889.015-17.778,0a6.311,6.311,0,0,1-3.949-1.3C-1057.12,3531.307-1057.233,3531.25-1057.387,3531.153Zm9.056,27.634c-2.552-1.527-4.95-2.969-7.36-4.389a.786.786,0,0,0-.609.009c-2.5,1.049-5.007,2.064-7.468,3.189a8.381,8.381,0,0,0-4.923,6.095c-.434,2.008-.714,4.048-1.062,6.075a1.513,1.513,0,0,0,.4-.518c.616-1.169,1.177-2.371,1.854-3.5a11.073,11.073,0,0,1,6.766-5.176c1.874-.517,2.86.031,3.575,1.893A23.17,23.17,0,0,1-1048.331,3558.787Zm-8.937-31.321c.052.2.073.329.118.449a4.176,4.176,0,0,0,4.239,2.686q8.72.01,17.44,0c.314,0,.629-.012.941-.042a3.968,3.968,0,0,0,3.4-3.094Zm-.134-2.144h26.41v-1.886h-26.41Zm21.2,24.41-6.438,2.3,1.964,4.748c2.28-1.365,4.46-2.671,6.674-4C-1034.767,3551.721-1035.485,3550.727-1036.2,3549.732Zm-18.156,3.043c2.244,1.347,4.424,2.657,6.675,4.007l1.956-4.752-6.425-2.3Zm-11.224,13.681a26.818,26.818,0,0,0,2.794,1.434,2.318,2.318,0,0,0,2.873-.991,5.312,5.312,0,0,0,.766-3.795c-.075-.663-.492-.724-1.008-.575A10.034,10.034,0,0,0-1065.583,3566.456Zm42.812.006a10.021,10.021,0,0,0-5.116-3.845,4.94,4.94,0,0,0-.588-.134.524.524,0,0,0-.7.5,5.264,5.264,0,0,0,.789,3.984,2.314,2.314,0,0,0,2.783.939A27.792,27.792,0,0,0-1022.771,3566.461Zm-23.358-8.043h3.9l-1.953-4.731Zm21.684,11.354a18.859,18.859,0,0,1,.869,1.745c.206.543.554.65.981.4a3.457,3.457,0,0,0,1.152-.946,2.314,2.314,0,0,0-.52-2.689c-.385.262-.762.542-1.162.78C-1023.541,3569.315-1023.98,3569.526-1024.445,3569.773Zm-42.033-1.5c-.178.368-.362.7-.507,1.052a1.933,1.933,0,0,0,1.442,2.67c.182.031.5-.035.57-.16.379-.673.7-1.379,1.023-2.036Z" transform="translate(0 0)" fill="#2baab7"/>
    <path id="Path_14035" data-name="Path 14035" d="M-998.089,3812.485a16.525,16.525,0,0,0-11.6,8.635,27.268,27.268,0,0,0-1.191,2.844c-.266.676-.692.961-1.262.786a1.017,1.017,0,0,1-.672-1.441,18.4,18.4,0,0,1,14.155-12.783c.414-.094.838-.146,1.258-.214a1.032,1.032,0,0,1,1.331,1.085c.006,3.659.009,7.317-.018,10.977a7.17,7.17,0,0,1-.271,1.721.885.885,0,0,1-1.09.668,1.028,1.028,0,0,1-.893-1.088c.088-2.26.189-4.52.248-6.78C-998.058,3815.46-998.089,3814.025-998.089,3812.485Z" transform="translate(-49.171 -247.628)" fill="#2baab7"/>
    <path id="Path_14036" data-name="Path 14036" d="M-905.708,3812.7v2.486c0,2.044-.015,4.087.008,6.13.009.76.087,1.521.169,2.276.079.723-.193,1.178-.833,1.293a1.011,1.011,0,0,1-1.18-.926,18.583,18.583,0,0,1-.222-2.475c-.025-3.211-.014-6.422-.009-9.633,0-1.222.4-1.568,1.621-1.359,7.532,1.287,12.528,5.588,15.1,12.751.28.781.145,1.236-.377,1.516-.66.353-1.278.066-1.539-.754a16.527,16.527,0,0,0-2.317-4.676,16.427,16.427,0,0,0-10.167-6.648A1.213,1.213,0,0,0-905.708,3812.7Z" transform="translate(-135.369 -247.746)" fill="#2baab7"/>
    <path id="Path_14037" data-name="Path 14037" d="M-934.5,3695.522a5.7,5.7,0,0,1-4.151-1.771,1,1,0,0,1-.109-1.533c.474-.47.977-.45,1.537.059a3.722,3.722,0,0,0,5.511,0c.564-.521,1.062-.544,1.525-.068a.99.99,0,0,1-.1,1.532A5.662,5.662,0,0,1-934.5,3695.522Z" transform="translate(-109.714 -150.528)" fill="#2baab7"/>
  </g>
</svg>
