<svg xmlns="http://www.w3.org/2000/svg" width="69.599" height="74.553" viewBox="0 0 69.599 74.553">
  <g id="Group_10644" data-name="Group 10644" transform="translate(129.268 -4048.528)">
    <path id="Path_14053" data-name="Path 14053" d="M-109.376,4191.724c0-1.278-.022-2.515.008-3.751.018-.746.525-1.17,1.348-1.173,2.407-.008,4.813,0,7.305,0v-6.162h2.5v6.1h3.753v-.818q0-6.327,0-12.657a3.682,3.682,0,0,1,3.842-3.86q11.068,0,22.135,0a3.681,3.681,0,0,1,3.845,3.858q.006,8.582,0,17.16a3.68,3.68,0,0,1-3.8,3.827q-27.339.006-54.678,0a6.153,6.153,0,0,1-6.139-6.115q-.017-3.454,0-6.911a11.11,11.11,0,0,1,6.926-10.233c2.012-.8,4.063-1.509,6.108-2.227.494-.174.608-.431.66-.946a3.166,3.166,0,0,0-1.5-3.339,8.7,8.7,0,0,1-3.2-4.967c-2.535-.238-4-1.6-4.023-3.69-.02-2.114,1.365-3.578,3.728-3.863,0-1.2,0-2.411,0-3.621a9.973,9.973,0,0,1,9.046-9.986,9.948,9.948,0,0,1,10.784,8.82,46.6,46.6,0,0,1,.025,4.778,3.952,3.952,0,0,1,3.075,1.613,3.767,3.767,0,0,1,.676,2.567c-.143,1.9-1.624,3.158-3.9,3.37a16.886,16.886,0,0,1-1.441,2.843,23.128,23.128,0,0,1-2.791,2.868c-.339.313-.625.532-.572,1.054.075.737-.183,1.653.169,2.18.327.487,1.27.563,1.941.82,1.853.714,3.719,1.4,5.551,2.162a14.591,14.591,0,0,1,1.884,1.144q-.85,1.053-1.5,1.851l-4.427-2.019c-.83,1.271-1.588,2.436-2.354,3.6-.711,1.078-1.488,1.162-2.4.254-1.262-1.255-2.517-2.519-3.812-3.814l-3.721,3.7c-1.063,1.058-1.786.99-2.6-.258-.735-1.121-1.464-2.244-2.187-3.353-3.515.922-6.162,2.754-7.265,6.335a5.352,5.352,0,0,0-.28,1.44c-.053,2.688-.163,5.381-.06,8.065a3.517,3.517,0,0,0,3.379,3.359c1.305.106,2.626.021,3.982.021v-2.467c-.723,0-1.462,0-2.2,0-1.047-.008-1.481-.42-1.484-1.436-.006-2.38,0-4.761,0-7.2h2.47v6.153c1.034,0,1.989.055,2.935-.012a6.421,6.421,0,0,1,6.951,4.937Zm17.395.008c.21.018.311.035.412.035q11.453,0,22.907,0c1.089,0,1.537-.5,1.537-1.67q0-8.228,0-16.457c0-1.34-.418-1.75-1.771-1.75H-90.172c-1.409,0-1.809.394-1.809,1.786q0,8.62,0,17.235Zm-14.974-40.775c-2.281,2.045-2.93,2.291-6.021,2.291h-4.974a42.775,42.775,0,0,0,.031,4.85,7.307,7.307,0,0,0,6.981,6.318,7.264,7.264,0,0,0,7.431-5.479,41.8,41.8,0,0,0,.477-5.646A5.343,5.343,0,0,1-106.956,4150.957Zm-11.089-.193c2.03,0,3.993.012,5.956,0a3.782,3.782,0,0,0,3.948-3.653c.078-.816.469-1.276,1.146-1.31a1.241,1.241,0,0,1,1.36,1.105c.176.726.352,1.455.583,2.166a2.238,2.238,0,0,0,1.874,1.591c0-.93.037-1.779-.006-2.629a7.462,7.462,0,0,0-5.41-6.908,7.455,7.455,0,0,0-8.138,2.915C-118.16,4146.055-118.161,4148.342-118.045,4150.763Zm11.222,38.559c-.255,1.978.141,2.447,2.031,2.447h10.263v-2.447Zm-6.285-22.534c0,.436-.022.95.012,1.461a.7.7,0,0,0,.262.487,3.806,3.806,0,0,0,4.4.014.708.708,0,0,0,.282-.477c.036-.534.013-1.073.013-1.485Zm-3.7,24.922h3.368a3.368,3.368,0,0,0-3.368-2.325Zm3.536-20.262c-1.244-1.184-2.276-.138-3.435.152l1.277,1.953C-114.684,4172.829-113.984,4172.146-113.27,4171.448Zm7.436,2.14c.42-.647.836-1.289,1.294-2-1.183-.278-2.245-1.364-3.432-.134C-107.262,4172.164-106.568,4172.856-105.834,4173.588Zm-14.757-19.03c-.805.14-1.247.6-1.206,1.24a1.135,1.135,0,0,0,1.206,1.065Zm19.932,2.391c.781-.117,1.208-.543,1.191-1.236a1.148,1.148,0,0,0-1.191-1.18Z" transform="translate(0 -71.171)" fill="#2baab7"/>
    <path id="Path_14054" data-name="Path 14054" d="M73.251,4067.156q0,7.376,0,14.753a3.681,3.681,0,0,1-3.884,3.894q-14.64,0-29.279.007c-.628,0-1.2-.049-1.508-.7a1.42,1.42,0,0,1,.357-1.623c1.368-1.69,2.734-3.382,4.059-5.1a2.081,2.081,0,0,0,.414-1.175q.035-12.347.018-24.693a3.7,3.7,0,0,1,4.019-3.991q10.912,0,21.824,0a3.688,3.688,0,0,1,3.981,3.951Q73.253,4059.818,73.251,4067.156Zm-30.914,16.132c.275.017.4.032.523.032q13.164,0,26.328,0c1.141,0,1.578-.483,1.578-1.709q0-14.4,0-28.809c0-1.39-.4-1.788-1.81-1.789h-21.2c-1.459,0-1.844.382-1.844,1.832,0,8.36.009,16.72-.023,25.082a2.812,2.812,0,0,1-.527,1.538C44.434,4080.737,43.414,4081.94,42.337,4083.288Z" transform="translate(-132.92 0)" fill="#2baab7"/>
    <path id="Path_14055" data-name="Path 14055" d="M96.133,4337.483a3.726,3.726,0,1,1,3.724-3.731A3.7,3.7,0,0,1,96.133,4337.483Zm-.063-2.492a1.235,1.235,0,1,0-1.173-1.312A1.311,1.311,0,0,0,96.07,4334.991Z" transform="translate(-175.683 -223.102)" fill="#2baab7"/>
    <path id="Path_14056" data-name="Path 14056" d="M-60.761,4218.922h-2.386v-2.386h2.386Z" transform="translate(-52.404 -133.152)" fill="#2baab7"/>
    <path id="Path_14057" data-name="Path 14057" d="M-24.794,4216.529v2.374h-2.415v-2.374Z" transform="translate(-80.886 -133.147)" fill="#2baab7"/>
    <path id="Path_14058" data-name="Path 14058" d="M113.511,4108.685v2.388H98.7v-2.388Z" transform="translate(-180.672 -47.677)" fill="#2baab7"/>
    <path id="Path_14059" data-name="Path 14059" d="M113.47,4135H98.655v-2.4H113.47Z" transform="translate(-180.638 -66.631)" fill="#2baab7"/>
    <path id="Path_14060" data-name="Path 14060" d="M98.554,4158.925v-2.385h14.84v2.385Z" transform="translate(-180.558 -85.604)" fill="#2baab7"/>
    <path id="Path_14061" data-name="Path 14061" d="M98.564,4182.878v-2.392h14.812v2.392Z" transform="translate(-180.565 -104.582)" fill="#2baab7"/>
    <path id="Path_14062" data-name="Path 14062" d="M122.517,4087.052v-2.387h9.842v2.387Z" transform="translate(-199.549 -28.64)" fill="#2baab7"/>
    <path id="Path_14063" data-name="Path 14063" d="M98.567,4084.612h2.4v2.409h-2.4Z" transform="translate(-180.568 -28.598)" fill="#2baab7"/>
  </g>
</svg>
